<?xml version="1.0" encoding="UTF-8"?>
<svg id="Calque_1" xmlns="http://www.w3.org/2000/svg" version="1.1" viewBox="0 0 112.6 104.3">
  <!-- Generator: Adobe Illustrator 29.1.0, SVG Export Plug-In . SVG Version: 2.1.0 Build 142)  -->
  <defs>
    <style>
      .st0 {
        fill: #ff9f00;
      }
    </style>
  </defs>
  <path class="st0" d="M87.7,70.5h0c3.5,0,6.3,2.8,6.3,6.3s-2.8,6.3-6.3,6.3h-4.2c3.5,0,6.3,2.8,6.3,6.3s-2.8,6.3-6.3,6.3h-27.2c-16.7,0-21-1.3-46-8.4v-37.6h12.5c14.6,0,31.3-13.5,31.3-33.4s12.5-7.4,12.5,5.1-4.2,24.2-4.2,24.2h33.4c3.5,0,6.3,2.8,6.3,6.3s-2.8,6.3-6.3,6.3h-4.2c3.5,0,6.3,2.8,6.3,6.3s-2.8,6.3-6.3,6.3h-4.2"/>
</svg>