<?xml version="1.0" encoding="UTF-8"?>
<svg id="Calque_1" xmlns="http://www.w3.org/2000/svg" version="1.1" viewBox="0 0 209 341.1">
  <!-- Generator: Adobe Illustrator 29.1.0, SVG Export Plug-In . SVG Version: 2.1.0 Build 142)  -->
  <defs>
    <style>
      .st0 {
        fill: #f2e7e9;
      }

      .st1 {
        fill: #2c333e;
        stroke-width: 2px;
      }

      .st1, .st2 {
        stroke: #2c333e;
        stroke-linecap: round;
        stroke-miterlimit: 10;
      }

      .st2 {
        fill: none;
        stroke-width: 6px;
      }

      .st3 {
        fill: #1d1d1b;
      }

      .st4 {
        fill: #a3404c;
      }

      .st5 {
        fill: #fff;
      }

      .st6 {
        fill: #93620d;
      }

      .st7 {
        fill: #c1272d;
      }

      .st8 {
        fill: #f9b7be;
      }

      .st9 {
        fill: #e6286a;
      }

      .st10 {
        fill: #f49c1a;
      }
    </style>
  </defs>
  <path class="st10" d="M120.9,200.3c6.5-7.1,15-14.2,28.2-21,13.2-6.8,17-14.8,25.6-21.6,8.7-6.7,21.5-9.5,30.2-4.9,8.7,4.6,2.1,14.6-10,25-17.4,14.9-31.2,41.2-43.9,65-12.8,23.8-27.9,38.1-72.2,34-31.1-2.8-48.1-24.6-51-39.3-.4-1.9-1-4.9-1.7-8.9-4.8-28.6-14.3-104.5-19.4-140.3-5.8-40.8-.8-42.8,4.2-44.7,0,0,9.3-2.5,13,9.4,3.7,11.9,14,61.3,18.1,73.2s7,16.7,8.9,16.8,2.2-2.8-.8-27.1c-3-24.3-7.1-83.2-4.8-93,2.4-9.9,7.2-9.9,11-10s8.6.3,13.3,22.3c4.7,22,8.6,72.7,11.7,85,3.2,12.3,3.5,15.7,6.4,14.5,3-1.2,5.2-72.9,5.9-85.3C94.4,37.1,95.4,0,108.4,0c15.3,0,10.5,36.9,10.9,52.3.5,15.4-1.4,80.7,2.2,83.4,3.6,2.7,11.2-56.8,13.2-68.6,2.1-11.8,6.8-46.9,19.2-46.2,12.4.7,7.3,40,2.5,71.2-4.8,31.2-6,71.4-6.8,83.3s-.3,9.1-.3,9.1"/>
  <path class="st6" d="M51.4,143.1c.5-6,1.6-7.3-1.3-27.2-3-24.3-7.1-83.2-4.8-93,2.4-9.9,7.2-9.9,11-10,0,0-4.7-1.4-4.7,34.6,0,36,3.3,49.9,4,64.9.8,14.9,2.5,27-4.3,30.8Z"/>
  <path class="st6" d="M87.8,134.8c3-1.2,5.2-72.9,5.9-85.3C94.4,37.1,95.4,0,108.4,0,108.4,0,102.3,12.4,100.5,35.4c-1.8,23-2.6,54.8-3.8,68-1.2,13.2-3.3,24-5.4,27.6-2.1,3.6-3.4,3.8-3.4,3.8Z"/>
  <path class="st6" d="M121.5,135.8c3.6,2.7,11.2-56.8,13.2-68.6,2.1-11.8,6.8-46.9,19.2-46.2,0,0-4.4,11-7.6,24.2-3.2,13.2-8.7,46.9-11.5,59.2s-6.6,28.7-8.6,30.7c-2,2-4.7.6-4.7.6Z"/>
  <path class="st6" d="M78.8,276.9c-31.1-2.8-48.1-24.6-51-39.3-.4-1.9-1-4.9-1.7-8.9-4.8-28.6-14.3-104.5-19.4-140.3-5.8-40.8-.8-42.8,4.2-44.7,0,0-.4,22.7,1.9,43.8,2.4,21.1,19.9,126.3,22.3,139.5,2.4,13.2,3.2,19.7,17.8,32.6,14.6,12.9,26,17.3,26,17.3Z"/>
  <path class="st3" d="M64.8,227.9c1.3-2.8,4.7-4.1,7.7-3.3,3.7.9,12.6,2.8,24.2,2.5,11.8-.3,21.6-3,25.4-4.3,3-1,6.5.2,8,3,.6,1.2.9,2.7.6,4.2-1.4,7.7-7.7,18.3-31.7,20.3s-33.7-10.3-34.7-18.8c-.2-1.3,0-2.5.6-3.6Z"/>
  <path class="st9" d="M117.2,238.8c1.6,1,7.2,7.1-19.6,9.3-23.5,1.9-17.8-6-16-7.3s6.6-5,16.9-5.2c10.3-.2,17.1,2.3,18.7,3.3Z"/>
  <path class="st2" d="M17.7,274.1s-25.8-15.5-9.1-32.2l16.7-16.7"/>
  <ellipse class="st1" cx="25.7" cy="273.2" rx="3.5" ry="7.5" transform="translate(-248.6 272.6) rotate(-84.5)"/>
  <path class="st2" d="M167.3,274.1s25.8-15.5,9.1-32.2l-16.7-16.7"/>
  <ellipse class="st1" cx="159.3" cy="273.2" rx="7.5" ry="3.5" transform="translate(-25.5 16.5) rotate(-5.5)"/>
  <path class="st6" d="M205.1,153c-8.6-4.8-21.5-1.9-30.2,4.9-8.7,6.7-12.4,14.8-25.6,21.6,0,0,5.2.8,12.3-4.1,7.1-4.9,17.7-16.3,25.4-18.3s21.5-.6,21.4,4.3c0,0,2.7-4.9-3.4-8.3Z"/>
  <g>
    <circle class="st3" cx="69.1" cy="193.8" r="15.3"/>
    <circle class="st3" cx="120.2" cy="191.7" r="15.3"/>
    <ellipse class="st5" cx="69.7" cy="198.6" rx="5.5" ry="5.7" transform="translate(-134.5 249.6) rotate(-84.7)"/>
    <ellipse class="st5" cx="120.7" cy="197.5" rx="5.5" ry="5.7" transform="translate(-87.1 299.4) rotate(-84.7)"/>
  </g>
  <path class="st7" d="M92.8,341.1c-26.8-6.9-42.7-20.3-64.8-25.1v-69.5c42.1,0,64.8,16.8,64.8,29.5v65.1Z"/>
  <path class="st7" d="M94.8,341.1c26.8-6.9,42.7-20.3,64.8-25.1v-69.5c-42.1,0-64.8,16.8-64.8,29.5v65.1Z"/>
  <ellipse class="st1" cx="24.2" cy="281.6" rx="8.2" ry="11.1" transform="translate(-166.8 73.3) rotate(-37.6)"/>
  <ellipse class="st1" cx="160.8" cy="281.6" rx="11.1" ry="8.2" transform="translate(-160.4 237.1) rotate(-52.4)"/>
  <path class="st4" d="M27.9,246.6c42.1,0,64.8,16.8,64.8,29.5l-64.2-25.3-.6-4.2Z"/>
  <path class="st8" d="M27.9,246.6c42.1,0,64.8,16.8,64.8,29.5l-64.8-29.5Z"/>
  <path class="st0" d="M27.9,246.6c42.1,0,64.8,16.8,64.8,29.5,0,0-12.7-11.8-23.3-16.9-26.2-12.6-41.5-12.6-41.5-12.6Z"/>
  <path class="st4" d="M159.7,246.6c-42.1,0-64.8,16.8-64.8,29.5l64.2-25.3.6-4.2Z"/>
  <path class="st8" d="M159.7,246.6c-42.1,0-64.8,16.8-64.8,29.5l64.8-29.5Z"/>
  <path class="st0" d="M159.7,246.6c-42.1,0-64.8,16.8-64.8,29.5,0,0,12.7-11.8,23.3-16.9,26.2-12.6,41.5-12.6,41.5-12.6Z"/>
</svg>