<?xml version="1.0" encoding="UTF-8"?>
<svg id="Calque_1" xmlns="http://www.w3.org/2000/svg" version="1.1" viewBox="0 0 215.8 343.5">
  <!-- Generator: Adobe Illustrator 29.1.0, SVG Export Plug-In . SVG Version: 2.1.0 Build 142)  -->
  <defs>
    <style>
      .st0 {
        fill: #2c333e;
        stroke-width: 2px;
      }

      .st0, .st1 {
        stroke: #2c333e;
        stroke-linecap: round;
        stroke-miterlimit: 10;
      }

      .st1 {
        fill: none;
        stroke-width: 6px;
      }

      .st2 {
        fill: #1d1d1b;
      }

      .st3 {
        fill: #fff;
      }

      .st4 {
        fill: #93620d;
      }

      .st5 {
        fill: #e6286a;
      }

      .st6 {
        fill: #f49c1a;
      }
    </style>
  </defs>
  <path class="st1" d="M78.3,260.3s2,26,4,41.6c1.2,9.4,4.1,26.1,5.5,33.8"/>
  <ellipse class="st0" cx="74.6" cy="337.1" rx="13" ry="5.5" transform="translate(-12.3 3) rotate(-2.1)"/>
  <g>
    <path class="st1" d="M100.5,260.3s-2,26-4,41.6c-1.2,9.4-4.1,26.1-5.5,33.8"/>
    <ellipse class="st0" cx="104.2" cy="337.1" rx="5.5" ry="13" transform="translate(-236.5 428.8) rotate(-87.9)"/>
  </g>
  <path class="st6" d="M115.4,190.9c6.2-6.7,14.3-13.5,26.9-20,12.6-6.5,16.2-14.1,24.4-20.6,8.3-6.4,20.5-9.1,28.8-4.6,8.3,4.4,2,13.9-9.5,23.8-16.6,14.2-29.7,39.3-41.9,61.9-12.2,22.6-26.6,36.3-68.9,32.4-29.6-2.7-45.8-23.5-48.6-37.4-.4-1.8-1-4.7-1.6-8.5-4.6-27.2-13.6-99.6-18.5-133.8-5.5-38.9-.8-40.8,4-42.6,0,0,8.9-2.4,12.4,8.9,3.5,11.3,13.3,58.4,17.3,69.7,4,11.3,6.7,15.9,8.5,16.1s2.1-2.7-.7-25.8c-2.9-23.1-6.8-79.3-4.5-88.7,2.2-9.4,6.8-9.4,10.5-9.5,3.7-.1,8.2.3,12.6,21.3,4.4,21,8.2,69.3,11.2,81s3.3,14.9,6.1,13.8c2.8-1.1,5-69.5,5.6-81.3S91,0,103.5,0c14.6,0,10,35.2,10.4,49.9s-1.3,76.9,2.1,79.5c3.4,2.6,10.6-54.1,12.6-65.3,2-11.2,6.4-44.7,18.3-44,11.8.6,7,38.1,2.4,67.9-4.6,29.7-5.7,68-6.5,79.4-.4,5.6-.2,8.7-.2,8.7"/>
  <path class="st4" d="M49.1,136.4c.5-5.7,1.6-6.9-1.2-25.9-2.9-23.1-6.8-79.3-4.5-88.7,2.2-9.4,6.8-9.4,10.5-9.5,0,0-4.4-1.3-4.4,33,0,34.3,3.1,47.6,3.8,61.8.7,14.2,2.3,25.8-4.1,29.3Z"/>
  <path class="st4" d="M83.8,128.5c2.8-1.1,5-69.5,5.6-81.3C90.1,35.3,91,0,103.5,0,103.5,0,97.6,11.8,95.9,33.8c-1.7,22-2.5,52.2-3.6,64.8-1.2,12.6-3.2,22.8-5.2,26.3-2,3.4-3.3,3.6-3.3,3.6Z"/>
  <path class="st4" d="M116,129.4c3.4,2.6,10.6-54.1,12.6-65.3s6.4-44.7,18.3-44c0,0-4.2,10.5-7.2,23.1-3.1,12.6-8.3,44.7-10.9,56.4-2.6,11.8-6.3,27.4-8.2,29.2-1.9,1.9-4.5.6-4.5.6Z"/>
  <path class="st4" d="M75.2,263.9c-29.6-2.7-45.8-23.5-48.6-37.4-.4-1.8-1-4.7-1.6-8.5-4.6-27.2-13.6-99.6-18.5-133.8-5.5-38.9-.8-40.8,4-42.6,0,0-.4,21.7,1.8,41.8s18.9,120.4,21.2,133c2.3,12.6,3,18.8,17,31.1,13.9,12.3,24.8,16.5,24.8,16.5Z"/>
  <path class="st2" d="M61.9,217.2c1.3-2.7,4.4-3.9,7.3-3.2,3.5.9,12,2.6,23,2.4s20.6-2.9,24.2-4.1c2.9-.9,6.2.2,7.6,2.9.6,1.2.8,2.6.6,4-1.3,7.3-7.4,17.4-30.3,19.4-26.3,2.2-32.1-9.9-33.1-18-.1-1.2,0-2.4.6-3.5Z"/>
  <path class="st5" d="M111.8,227.6c1.5,1,6.9,6.7-18.7,8.8-22.4,1.8-17-5.7-15.3-7s6.3-4.8,16.1-5,16.3,2.1,17.8,3.1Z"/>
  <g>
    <path class="st1" d="M17,261.3s-24.6-14.8-8.6-30.7l15.9-15.9"/>
    <ellipse class="st0" cx="23.2" cy="268.4" rx="7.8" ry="10.6" transform="translate(-158.9 70) rotate(-37.6)"/>
    <ellipse class="st0" cx="24.7" cy="260.3" rx="3.3" ry="7.1" transform="translate(-236.8 259.9) rotate(-84.5)"/>
  </g>
  <g>
    <ellipse class="st0" cx="204.2" cy="214.4" rx="10.6" ry="7.8" transform="translate(-6.6 6.4) rotate(-1.8)"/>
    <path class="st0" d="M194.1,201.8c-2.1,1.2-1,3.4-.8,7.6.2,4.2-.2,7.6,1.7,7.5s4.5-4,4.5-8.2c0-8.6-3.9-7.8-5.4-6.9Z"/>
  </g>
  <path class="st4" d="M195.6,145.8c-8.2-4.6-20.5-1.8-28.8,4.6-8.3,6.4-11.8,14.1-24.4,20.6,0,0,5,.7,11.7-4,6.8-4.7,16.9-15.6,24.3-17.5,7.4-1.9,20.5-.5,20.4,4.1,0,0,2.5-4.6-3.2-7.9Z"/>
  <g>
    <circle class="st2" cx="71" cy="184.4" r="9.5"/>
    <circle class="st2" cx="115.7" cy="183.1" r="9.5"/>
    <ellipse class="st3" cx="71.4" cy="187.3" rx="3.4" ry="3.5" transform="translate(-121.8 241) rotate(-84.7)"/>
    <ellipse class="st3" cx="116" cy="186.7" rx="3.4" ry="3.5" transform="translate(-80.6 284.8) rotate(-84.7)"/>
  </g>
  <path class="st1" d="M196,218s-8.2,27.5-27.6,16l-19.4-11.5"/>
</svg>