<?xml version="1.0" encoding="UTF-8"?>
<svg id="Calque_1" xmlns="http://www.w3.org/2000/svg" version="1.1" viewBox="0 0 239.6 364.8">
  <!-- Generator: Adobe Illustrator 29.1.0, SVG Export Plug-In . SVG Version: 2.1.0 Build 142)  -->
  <defs>
    <style>
      .st0 {
        fill: #2c333e;
        stroke-width: 2px;
      }

      .st0, .st1 {
        stroke: #2c333e;
      }

      .st0, .st1, .st2 {
        stroke-linecap: round;
        stroke-miterlimit: 10;
      }

      .st1, .st2 {
        fill: none;
        stroke-width: 6px;
      }

      .st3 {
        fill: #1d1d1b;
      }

      .st4 {
        fill: #fff;
      }

      .st5 {
        fill: #93620d;
      }

      .st6 {
        fill: #f49c1a;
      }

      .st2 {
        stroke: #000;
      }
    </style>
  </defs>
  <path class="st1" d="M78.9,276.5s2.2,27.7,4.2,44.2c1.2,10,4.4,27.7,5.8,35.9"/>
  <ellipse class="st0" cx="75" cy="358" rx="13.8" ry="5.8" transform="translate(-13.1 3) rotate(-2.1)"/>
  <g>
    <path class="st1" d="M102.6,276.5s-2.2,27.7-4.2,44.2c-1.2,10-4.4,27.7-5.8,35.9"/>
    <ellipse class="st0" cx="106.4" cy="358" rx="5.8" ry="13.8" transform="translate(-255.3 451.2) rotate(-87.9)"/>
  </g>
  <path class="st6" d="M118.3,202.8c6.6-7.2,15.2-14.4,28.6-21.3s17.2-15,26-21.9c8.8-6.8,21.8-9.6,30.6-4.9,8.8,4.7,2.1,14.8-10.1,25.3-17.7,15.1-31.6,41.7-44.5,65.8-12.9,24-28.2,38.5-73.1,34.5-31.5-2.8-48.7-24.9-51.6-39.8-.4-2-1.1-5-1.7-9-4.9-28.9-14.5-105.7-19.6-142.1-5.9-41.3-.8-43.3,4.2-45.3,0,0,9.5-2.5,13.2,9.5,3.7,12,14.1,62,18.3,74.1,4.2,12,7.1,16.9,9,17s2.3-2.9-.8-27.4c-3.1-24.6-7.2-84.2-4.8-94.2,2.4-10,7.2-10,11.1-10.1s8.7.3,13.4,22.6c4.7,22.3,8.7,73.6,11.9,86.1,3.2,12.4,3.5,15.9,6.5,14.7,3-1.2,5.3-73.8,6-86.4C91.5,37.5,92.5,0,105.7,0c15.5,0,10.6,37.4,11.1,53,.5,15.6-1.4,81.7,2.2,84.5s11.3-57.5,13.4-69.4c2.1-11.9,6.8-47.4,19.4-46.7,12.6.7,7.4,40.5,2.5,72.1-4.9,31.6-6.1,72.3-6.9,84.3-.4,5.9-.3,9.2-.3,9.2"/>
  <path class="st5" d="M48,144.9c.5-6.1,1.7-7.4-1.3-27.6-3.1-24.6-7.2-84.2-4.8-94.2,2.4-10,7.2-10,11.1-10.1,0,0-4.7-1.4-4.7,35,0,36.4,3.3,50.6,4.1,65.7.8,15.1,2.5,27.4-4.4,31.2Z"/>
  <path class="st5" d="M84.8,136.4c3-1.2,5.3-73.8,6-86.4C91.5,37.5,92.5,0,105.7,0,105.7,0,99.5,12.5,97.6,35.9c-1.8,23.3-2.6,55.5-3.9,68.8-1.2,13.4-3.4,24.3-5.5,27.9-2.2,3.6-3.5,3.9-3.5,3.9Z"/>
  <path class="st5" d="M119,137.4c3.6,2.8,11.3-57.5,13.4-69.4,2.1-11.9,6.8-47.4,19.4-46.7,0,0-4.4,11.2-7.7,24.5-3.2,13.4-8.8,47.4-11.6,59.9-2.8,12.5-6.7,29.1-8.7,31.1-2,2-4.8.6-4.8.6Z"/>
  <path class="st5" d="M75.6,280.3c-31.5-2.8-48.7-24.9-51.6-39.8-.4-2-1.1-5-1.7-9-4.9-28.9-14.5-105.7-19.6-142.1-5.9-41.3-.8-43.3,4.2-45.3,0,0-.4,23,1.9,44.4,2.4,21.3,20.1,127.9,22.5,141.2,2.4,13.3,3.2,20,18,33,14.8,13,26.3,17.5,26.3,17.5Z"/>
  <g>
    <path class="st1" d="M51.8,274.2s-30.1,4.7-27.9-19.2l2.2-23.8"/>
    <ellipse class="st0" cx="61.7" cy="275.8" rx="8.3" ry="11.2" transform="translate(-220.9 275.9) rotate(-77.4)"/>
    <ellipse class="st0" cx="57.4" cy="268.3" rx="7.6" ry="3.5" transform="translate(-141.2 79) rotate(-34.3)"/>
  </g>
  <g>
    <path class="st0" d="M220.8,223.4c3.6-1.1,16.3-6.5,17.6-3.9,2.1,4.2-7.9,6.8-7.4,8.5,1.3,4.4.5,9.6-5.4,11.3-6,1.8-11.8-.4-13.1-4.8-1.3-4.4,2.5-9.4,8.4-11.2Z"/>
    <path class="st0" d="M209.4,221.2c-1.8,1.8-.1,3.8,1.2,8,1.4,4.2,1.9,7.9,3.7,7.3s3.6-5.3,2.5-9.6c-2.3-8.9-6.1-6.9-7.4-5.7Z"/>
  </g>
  <path class="st5" d="M203.5,154.9c-8.7-4.9-21.8-1.9-30.6,4.9-8.8,6.8-12.6,15-26,21.9,0,0,5.3.8,12.5-4.2,7.2-5,17.9-16.5,25.8-18.5,7.8-2,21.8-.6,21.7,4.3,0,0,2.7-4.9-3.4-8.4Z"/>
  <g>
    <circle class="st3" cx="71.1" cy="195.9" r="10.1"/>
    <circle class="st3" cx="118.6" cy="194.5" r="10.1"/>
    <ellipse class="st4" cx="75.8" cy="197.9" rx="3.6" ry="3.7" transform="translate(-128.3 255.1) rotate(-84.7)"/>
    <ellipse class="st4" cx="123.2" cy="196.1" rx="3.6" ry="3.7" transform="translate(-83.5 300.6) rotate(-84.7)"/>
  </g>
  <path class="st1" d="M210.7,235.5s-8.3,8.2-31.9,4.2c-19.1-3.2-24.7-3.4-24.7-3.4"/>
  <path class="st2" d="M66.3,239.7s31.9,22.3,58.4-5.3"/>
</svg>