<?xml version="1.0" encoding="UTF-8"?>
<svg id="Calque_1" xmlns="http://www.w3.org/2000/svg" version="1.1" viewBox="0 0 339.5 542.8">
  <!-- Generator: Adobe Illustrator 29.1.0, SVG Export Plug-In . SVG Version: 2.1.0 Build 142)  -->
  <defs>
    <style>
      .st0 {
        fill: #fff;
      }

      .st0, .st1 {
        stroke-width: 2px;
      }

      .st0, .st1, .st2, .st3 {
        stroke-linecap: round;
      }

      .st0, .st3 {
        stroke: #1d1d1b;
        stroke-linejoin: round;
      }

      .st1 {
        fill: #2c333e;
      }

      .st1, .st2 {
        stroke: #2c333e;
        stroke-miterlimit: 10;
      }

      .st4 {
        fill: #1d1d1b;
      }

      .st2 {
        stroke-width: 7px;
      }

      .st2, .st3 {
        fill: none;
      }

      .st5 {
        fill: #93620d;
      }

      .st3 {
        stroke-width: 5px;
      }

      .st6 {
        fill: #e6286a;
      }

      .st7 {
        fill: #f49c1a;
      }
    </style>
  </defs>
  <g>
    <path class="st2" d="M122.6,411.7s3.2,41.2,6.3,65.8c1.8,14.9,6.5,41.2,8.6,53.5"/>
    <ellipse class="st1" cx="116.8" cy="533.1" rx="20.5" ry="8.6" transform="translate(-19.5 4.6) rotate(-2.1)"/>
    <g>
      <path class="st2" d="M157.8,411.7s-3.2,41.2-6.3,65.8-6.5,41.2-8.6,53.5"/>
      <ellipse class="st1" cx="163.5" cy="533.1" rx="8.6" ry="20.5" transform="translate(-375.2 677) rotate(-87.9)"/>
    </g>
    <path class="st7" d="M181.3,302c9.9-10.7,22.6-21.4,42.5-31.6,19.9-10.3,25.6-22.4,38.6-32.6,13.1-10.2,32.4-14.3,45.5-7.3,13.1,7,3.2,22-15.1,37.6-26.3,22.5-47,62.1-66.3,97.9-19.2,35.8-42,57.4-108.9,51.3-46.8-4.2-72.5-37.1-76.9-59.2-.6-2.9-1.6-7.5-2.6-13.4-7.3-43.1-21.6-157.5-29.2-211.6C.3,71.7,7.8,68.7,15.3,65.8c0,0,14.1-3.7,19.7,14.1,5.6,17.9,21,92.3,27.3,110.3,6.3,17.9,10.6,25.1,13.5,25.4s3.4-4.3-1.2-40.9c-4.5-36.6-10.7-125.4-7.2-140.2,3.6-14.9,10.8-14.9,16.6-15.1,5.8-.2,13,.5,20,33.7,7,33.2,12.9,109.7,17.7,128.2,4.8,18.5,5.2,23.6,9.7,21.9,4.5-1.7,7.9-109.9,8.9-128.6C141.3,55.9,142.8,0,162.4,0c23.1,0,15.8,55.7,16.5,78.9s-2.1,121.6,3.3,125.8c5.4,4.1,16.8-85.6,19.9-103.3,3.1-17.8,10.2-70.6,28.9-69.6,18.7,1,11,60.3,3.7,107.4-7.3,47-9,107.6-10.3,125.6-.6,8.8-.4,13.7-.4,13.7"/>
    <path class="st5" d="M76.5,215.8c.8-9.1,2.5-11-2-41-4.5-36.6-10.7-125.4-7.2-140.2,3.6-14.9,10.8-14.9,16.6-15.1,0,0-7-2.1-7,52.1,0,54.2,4.9,75.3,6.1,97.8,1.2,22.5,3.7,40.7-6.5,46.4Z"/>
    <path class="st5" d="M131.4,203.2c4.5-1.7,7.9-109.9,8.9-128.6C141.3,55.9,142.8,0,162.4,0,162.4,0,153.2,18.7,150.5,53.4c-2.7,34.7-3.9,82.6-5.8,102.5-1.9,19.9-5,36.1-8.2,41.5s-5.1,5.8-5.1,5.8Z"/>
    <path class="st5" d="M182.2,204.7c5.4,4.1,16.8-85.6,19.9-103.3,3.1-17.8,10.2-70.6,28.9-69.6,0,0-6.6,16.6-11.4,36.5-4.8,19.9-13.1,70.6-17.3,89.2-4.2,18.6-10,43.3-13,46.2-3,3-7.1,1-7.1,1Z"/>
    <path class="st5" d="M117.7,417.4c-46.8-4.2-72.5-37.1-76.9-59.2-.6-2.9-1.6-7.5-2.6-13.4-7.3-43.1-21.6-157.5-29.2-211.6C.3,71.7,7.8,68.7,15.3,65.8c0,0-.7,34.3,2.9,66.1,3.5,31.8,30,190.4,33.5,210.3,3.6,19.9,4.8,29.7,26.9,49.1,22.1,19.4,39.1,26.1,39.1,26.1Z"/>
    <g>
      <path class="st2" d="M25.7,413.2s-38.9-23.4-13.7-48.5l25.2-25.2"/>
      <ellipse class="st1" cx="35.5" cy="424.5" rx="12.4" ry="16.7" transform="translate(-251.7 109.9) rotate(-37.6)"/>
      <ellipse class="st1" cx="37.8" cy="411.8" rx="5.2" ry="11.3" transform="translate(-375.7 409.9) rotate(-84.5)"/>
    </g>
    <g>
      <ellipse class="st1" cx="321.8" cy="339.1" rx="16.7" ry="12.4" transform="translate(-10.4 10.1) rotate(-1.8)"/>
      <path class="st1" d="M305.8,319.2c-3.3,1.9-1.6,5.4-1.2,12,.4,6.6-.3,12.1,2.6,11.9,2.9-.2,7.2-6.3,7.2-12.9,0-13.6-6.2-12.3-8.6-10.9Z"/>
    </g>
    <path class="st5" d="M308.1,230.6c-12.9-7.3-32.5-2.8-45.5,7.3-13.1,10.2-18.7,22.3-38.6,32.6,0,0,7.8,1.2,18.6-6.2,10.7-7.4,26.7-24.6,38.4-27.6,11.7-3,32.4-.9,32.3,6.4,0,0,4-7.3-5.1-12.5Z"/>
    <path class="st2" d="M308.8,344.8s-13,43.5-43.6,25.3l-30.6-18.2"/>
  </g>
  <g>
    <path class="st3" d="M78.3,293.2c-.7-9.1,6.1-17,15.1-17.7s17,6.1,17.7,15.1"/>
    <path class="st3" d="M151.4,279.8c-.7-9.1,6.1-17,15.1-17.7,9.1-.7,17,6.1,17.7,15.1"/>
    <path class="st4" d="M79.1,334.9l121.2-20.3s-1.2,56.6-53.5,64.6c-52.3,8-67.7-44.3-67.7-44.3Z"/>
    <path class="st0" d="M89.1,338.8s2.6,14.2,16.9,12c18.1-2.8,65.2-10.2,81.5-15.4,8.9-2.9,4.9-15.1,4.9-15.1l-103.4,18.5Z"/>
    <path class="st6" d="M112.9,366.3s10.2-9.2,33.2-11.5,30,3.7,30,3.7c0,0-11.1,12.5-30,15.7-24.3,4.1-33.2-7.8-33.2-7.8Z"/>
  </g>
</svg>