<?xml version="1.0" encoding="UTF-8"?>
<svg id="Calque_1" xmlns="http://www.w3.org/2000/svg" version="1.1" viewBox="0 0 340.6 536">
  <!-- Generator: Adobe Illustrator 29.1.0, SVG Export Plug-In . SVG Version: 2.1.0 Build 142)  -->
  <defs>
    <style>
      .st0 {
        fill: #2c333e;
        stroke-width: 2px;
      }

      .st0, .st1 {
        stroke: #2c333e;
        stroke-linecap: round;
        stroke-miterlimit: 10;
      }

      .st2 {
        fill: #1d1d1b;
      }

      .st1 {
        fill: none;
        stroke-width: 7px;
      }

      .st3 {
        fill: #fff;
      }

      .st4 {
        fill: #93620d;
      }

      .st5 {
        fill: #e6286a;
      }

      .st6 {
        fill: #f49c1a;
      }
    </style>
  </defs>
  <path class="st1" d="M116,406.5s3.2,40.7,6.2,65c1.8,14.7,6.4,40.7,8.5,52.8"/>
  <ellipse class="st0" cx="110.4" cy="526.5" rx="20.3" ry="8.5" transform="translate(-19.2 4.4) rotate(-2.1)"/>
  <g>
    <path class="st1" d="M150.8,406.5s-3.2,40.7-6.2,65-6.4,40.7-8.5,52.8"/>
    <ellipse class="st0" cx="156.5" cy="526.5" rx="8.5" ry="20.3" transform="translate(-375.4 663.6) rotate(-87.9)"/>
  </g>
  <path class="st6" d="M174,298.3c9.7-10.5,22.3-21.1,42-31.3s25.3-22.1,38.2-32.1c12.9-10,32-14.2,44.9-7.2,12.9,6.9,3.2,21.7-14.9,37.2-26,22.3-46.4,61.4-65.4,96.7-19,35.4-41.5,56.6-107.6,50.7-46.3-4.2-71.6-36.7-76-58.5-.6-2.9-1.6-7.4-2.6-13.2-7.2-42.5-21.3-155.5-28.9-208.9-8.6-60.8-1.2-63.7,6.2-66.5,0,0,13.9-3.7,19.4,13.9,5.5,17.7,20.8,91.2,27,108.9,6.2,17.7,10.5,24.8,13.3,25.1,2.8.3,3.3-4.2-1.1-40.4-4.5-36.1-10.6-123.8-7.1-138.5,3.5-14.7,10.7-14.7,16.4-14.9s12.8.5,19.8,33.3c6.9,32.8,12.8,108.3,17.5,126.6,4.7,18.3,5.1,23.3,9.6,21.6s7.8-108.5,8.8-127C134.5,55.2,136,0,155.4,0c22.9,0,15.6,55,16.3,77.9.7,22.9-2.1,120.1,3.2,124.2,5.3,4.1,16.6-84.5,19.7-102.1,3.1-17.6,10.1-69.8,28.5-68.7s10.9,59.6,3.7,106c-7.2,46.5-8.9,106.3-10.1,124-.6,8.7-.4,13.6-.4,13.6"/>
  <path class="st4" d="M70.5,213.1c.7-8.9,2.4-10.8-1.9-40.5-4.5-36.1-10.6-123.8-7.1-138.5,3.5-14.7,10.7-14.7,16.4-14.9,0,0-6.9-2.1-6.9,51.5,0,53.6,4.9,74.4,6,96.6,1.1,22.2,3.7,40.2-6.4,45.8Z"/>
  <path class="st4" d="M124.7,200.7c4.4-1.7,7.8-108.5,8.8-127C134.5,55.2,136,0,155.4,0,155.4,0,146.3,18.4,143.6,52.7c-2.7,34.3-3.9,81.6-5.7,101.2-1.8,19.6-4.9,35.7-8.1,41-3.2,5.3-5.1,5.7-5.1,5.7Z"/>
  <path class="st4" d="M174.9,202.1c5.3,4.1,16.6-84.5,19.7-102.1,3.1-17.6,10.1-69.8,28.5-68.7,0,0-6.5,16.4-11.3,36.1s-12.9,69.8-17.1,88.1c-4.1,18.4-9.9,42.7-12.8,45.7-3,2.9-7.1.9-7.1.9Z"/>
  <path class="st4" d="M111.2,412.2c-46.3-4.2-71.6-36.7-76-58.5-.6-2.9-1.6-7.4-2.6-13.2-7.2-42.5-21.3-155.5-28.9-208.9-8.6-60.8-1.2-63.7,6.2-66.5,0,0-.7,33.9,2.8,65.2,3.5,31.4,29.6,188.1,33.1,207.7,3.5,19.6,4.8,29.4,26.5,48.5,21.8,19.2,38.7,25.7,38.7,25.7Z"/>
  <g>
    <path class="st1" d="M35.7,386.5s-42.3-14.9-22.9-44.2l19.4-29.4"/>
    <ellipse class="st0" cx="47.5" cy="395.4" rx="12.2" ry="16.5" transform="translate(-283 173.2) rotate(-49.2)"/>
    <ellipse class="st0" cx="47.2" cy="382.7" rx="11.2" ry="5.2" transform="translate(-40.5 7.2) rotate(-6.1)"/>
  </g>
  <g>
    <ellipse class="st0" cx="323.1" cy="375.1" rx="12.2" ry="16.5" transform="translate(-81.6 660.2) rotate(-84.4)"/>
    <path class="st0" d="M306.1,393.6c-3.1-2-1.2-5.4-.4-11.9.8-6.5.5-11.9,3.4-11.6,2.8.4,6.7,6.7,6.2,13.2-.9,13.4-6.9,11.7-9.1,10.2Z"/>
  </g>
  <path class="st4" d="M299.3,227.8c-12.8-7.2-32.1-2.8-44.9,7.2-12.9,10-18.5,22-38.2,32.1,0,0,7.7,1.1,18.3-6.2,10.6-7.3,26.4-24.3,37.9-27.3,11.5-2.9,32-.9,31.9,6.4,0,0,4-7.3-5-12.3Z"/>
  <path class="st1" d="M316,364.8s8.8-31.1-24.1-43.6c-31.1-11.8-50-13.8-50-13.8"/>
  <circle class="st2" cx="96.2" cy="288" r="14.8"/>
  <circle class="st2" cx="166" cy="286" r="14.8"/>
  <ellipse class="st3" cx="96.8" cy="280.3" rx="5.3" ry="5.5" transform="translate(-191.2 350.7) rotate(-84.7)"/>
  <ellipse class="st3" cx="166.5" cy="279.2" rx="5.3" ry="5.5" transform="translate(-126.9 419.1) rotate(-84.7)"/>
  <circle class="st2" cx="133.1" cy="350.1" r="17.5"/>
  <ellipse class="st5" cx="133.6" cy="358.1" rx="8.2" ry="6.5"/>
</svg>